#!OML:ASF H:\ManfredETheater\Project 1\Capture day 1\Session 1\subject.ASF
:FULLY-SPECIFIED
:DEGREES
47
root 1.69915 17.1614 34.1437 -175.527 -5.0423 178.87
lowerback -0.575265 -0.911047 -3.08583
upperback -4.3504 -1.41974 1.31204
thorax -4.06195 -0.651088 3.13216
lowerneck -19.5465 -1.27172 -3.14405
upperneck 23.7916 -1.70606 1.23519
head 10.9637 -1.1366 0.673965
rclavicle 4.4975e-015 -1.59028e-014
rhumerus -36.7949 -7.00606 -81.3723
rradius 29.2853
rwrist 2.8728
rhand -18.5144 -12.306
rfingers 7.12502
rthumb 7.77391 -42.1431
lclavicle 4.4975e-015 -1.59028e-014
lhumerus -33.3223 7.27463 86.4707
lradius 25.7957
lwrist -19.2433
lhand -11.081 9.16474
lfingers 7.12502
lthumb 14.9425 38.6057
rfemur -12.498 -0.385108 16.4702
rtibia 33.4737
rfoot -21.4969 -13.789
rtoes 6.2069
lfemur -15.3781 -4.8208 -18.7977
ltibia 35.3585
lfoot -21.1439 2.17219
ltoes 0.246245
48
root 1.6999 17.1612 34.1431 -175.538 -5.02225 178.871
lowerback -0.598781 -0.919367 -3.08921
upperback -4.34091 -1.4299 1.30858
thorax -4.03794 -0.656568 3.12997
lowerneck -19.5279 -1.27939 -3.14882
upperneck 23.7945 -1.72762 1.27049
head 10.9621 -1.14313 0.684298
rclavicle 1.41634e-015 -4.77083e-015
rhumerus -36.8194 -7.02609 -81.3443
rradius 29.2706
rwrist 2.87866
rhand -18.5004 -12.3473
rfingers 7.12502
rthumb 7.78735 -42.1839
lclavicle 1.41634e-015 -4.77083e-015
lhumerus -33.2831 7.20993 86.5194
lradius 25.8417
lwrist -19.1845
lhand -11.1219 9.18278
lfingers 7.12502
lthumb 14.903 38.6267
rfemur -12.486 -0.372198 16.4736
rtibia 33.4716
rfoot -21.4995 -13.7816
rtoes 6.21171
lfemur -15.3594 -4.81893 -18.7956
ltibia 35.3564
lfoot -21.1464 2.18742
ltoes 0.247093
49
root 1.70065 17.161 34.1426 -175.548 -5.0049 178.872
lowerback -0.624872 -0.928043 -3.09224
upperback -4.33128 -1.44049 1.30487
thorax -4.0123 -0.662325 3.12727
lowerneck -19.5049 -1.28647 -3.1548
upperneck 23.798 -1.7487 1.30673
head 10.9598 -1.14959 0.695246
rclavicle -5.46658e-016 2.78299e-015
rhumerus -36.8449 -7.05126 -81.3137
rradius 29.2528
rwrist 2.88755
rhand -18.4859 -12.3749
rfingers 7.12502
rthumb 7.80139 -42.2109
lclavicle -5.46658e-016 2.78299e-015
lhumerus -33.2449 7.1489 86.569
lradius 25.8897
lwrist -19.1274
lhand -11.1542 9.19339
lfingers 7.12502
lthumb 14.872 38.6396
rfemur -12.4746 -0.361158 16.4766
rtibia 33.4697
rfoot -21.5017 -13.7753
rtoes 6.21222
lfemur -15.342 -4.81756 -18.7939
ltibia 35.354
lfoot -21.1484 2.20127
ltoes 0.246631
50
root 1.70137 17.1608 34.1422 -175.556 -4.98798 178.871
lowerback -0.649106 -0.935847 -3.0962
upperback -4.32541 -1.45028 1.301
thorax -3.9917 -0.667624 3.12501
lowerneck -19.4781 -1.29291 -3.16166
upperneck 23.8067 -1.76916 1.3415
head 10.9588 -1.15639 0.705872
rclavicle -4.87022e-015 -1.59028e-015
rhumerus -36.8778 -7.08198 -81.2786
rradius 29.2347
rwrist 2.89908
rhand -18.4714 -12.4025
rfingers 7.12502
rthumb 7.81532 -42.2381
lclavicle -4.87022e-015 -1.59028e-015
lhumerus -33.2129 7.08902 86.621
lradius 25.9392
lwrist -19.0699
lhand -11.1803 9.19374
lfingers 7.12502
lthumb 14.8468 38.6418
rfemur -12.4655 -0.352158 16.4775
rtibia 33.4682
rfoot -21.5032 -13.7679
rtoes 6.21064
lfemur -15.3269 -4.81491 -18.794
ltibia 35.3516
lfoot -21.1503 2.21348
ltoes 0.247247
51
root 1.70207 17.1607 34.142 -175.563 -4.97053 178.87
lowerback -0.670558 -0.942612 -3.09971
upperback -4.32364 -1.45908 1.29799
thorax -3.97703 -0.672371 3.12353
lowerneck -19.4452 -1.29789 -3.1691
upperneck 23.8175 -1.78792 1.37521
head 10.9573 -1.16288 0.71646
rclavicle -2.83268e-015 1.86858e-014
rhumerus -36.9179 -7.115 -81.2403
rradius 29.2164
rwrist 2.91218
rhand -18.4607 -12.4261
rfingers 7.12502
rthumb 7.82565 -42.2612
lclavicle -2.83268e-015 1.86858e-014
lhumerus -33.1886 7.03062 86.6758
lradius 25.991
lwrist -19.0125
lhand -11.1906 9.18435
lfingers 7.12502
lthumb 14.8369 38.6332
rfemur -12.4597 -0.343256 16.4785
rtibia 33.4674
rfoot -21.5038 -13.7596
rtoes 6.20967
lfemur -15.3149 -4.81037 -18.7937
ltibia 35.3495
lfoot -21.1513 2.22568
ltoes 0.242874
52
root 1.70272 17.1607 34.1419 -175.566 -4.94734 178.871
lowerback -0.691754 -0.946416 -3.10096
upperback -4.32473 -1.46415 1.29516
thorax -3.96583 -0.675336 3.12093
lowerneck -19.4134 -1.30214 -3.17526
upperneck 23.8336 -1.80581 1.40618
head 10.958 -1.16943 0.725933
rclavicle 2.08724e-015 1.15295e-014
rhumerus -36.9619 -7.16155 -81.1933
rradius 29.1795
rwrist 2.95881
rhand -18.4732 -12.3668
rfingers 7.12502
rthumb 7.81358 -42.2024
lclavicle 2.08724e-015 1.15295e-014
lhumerus -33.1678 6.96926 86.7341
lradius 26.0436
lwrist -18.951
lhand -11.1864 9.16891
lfingers 7.12502
lthumb 14.8409 38.6174
rfemur -12.46 -0.332809 16.4801
rtibia 33.4672
rfoot -21.5016 -13.7492
rtoes 6.20145
lfemur -15.3072 -4.80161 -18.7926
ltibia 35.348
lfoot -21.1512 2.24038
ltoes 0.231339
53
root 1.70333 17.1606 34.1419 -175.566 -4.9238 178.87
lowerback -0.71357 -0.949845 -3.10448
upperback -4.32752 -1.46889 1.29267
thorax -3.95603 -0.678064 3.11997
lowerneck -19.3841 -1.30417 -3.17894
upperneck 23.8538 -1.82051 1.4333
head 10.9605 -1.17489 0.734041
rclavicle -2.48481e-016 -6.75868e-015
rhumerus -37.0083 -7.21309 -81.1416
rradius 29.1326
rwrist 3.02415
rhand -18.5007 -12.2524
rfingers 7.12502
rthumb 7.78712 -42.089
lclavicle -2.48481e-016 -6.75868e-015
lhumerus -33.1488 6.90485 86.797
lradius 26.0953
lwrist -18.8856
lhand -11.1753 9.14251
lfingers 7.12502
lthumb 14.8516 38.5902
rfemur -12.4643 -0.322159 16.4791
rtibia 33.4674
rfoot -21.4987 -13.738
rtoes 6.19806
lfemur -15.3036 -4.79221 -18.7935
ltibia 35.3472
lfoot -21.1502 2.25396
ltoes 0.222656
